<svg xmlns="http://www.w3.org/2000/svg" width="146.367" height="39.155" viewBox="0 0 146.367 39.155"><defs><style>.a{fill:#d7411d;}.b{fill:#522db2;}.c{fill:#ff8900;}</style></defs><g transform="translate(-503 -598.856)"><path class="a" d="M522.578,629.3a12.941,12.941,0,0,1-8.312,2.827,11.485,11.485,0,0,1-8.017-3.206,10.612,10.612,0,0,1-2.384-3.523,11.646,11.646,0,0,1-.021-8.755,11.083,11.083,0,0,1,2.279-3.5,10.631,10.631,0,0,1,3.418-2.342,10.44,10.44,0,0,1,4.22-.865,10.009,10.009,0,0,1,7.405,3.228,11.255,11.255,0,0,1,2.173,3.565,12.174,12.174,0,0,1,.8,4.43v1.224H507.177a7.259,7.259,0,0,0,7.257,6.16,8.929,8.929,0,0,0,3-.506,7.42,7.42,0,0,0,2.448-1.392Zm-8.9-15.823a6.1,6.1,0,0,0-4.2,1.6,7.087,7.087,0,0,0-2.257,4.135h12.743a7.355,7.355,0,0,0-2.215-4.093A5.764,5.764,0,0,0,513.675,613.473Z" transform="translate(0 -2.719)"/><path class="b" d="M534.877,631.716V610.239H539.1v2.025a8.311,8.311,0,0,1,2.7-1.814,8.575,8.575,0,0,1,3.333-.633,7.932,7.932,0,0,1,3.882.949,7.168,7.168,0,0,1,2.743,2.637,8.644,8.644,0,0,1,3.143-2.679,9.164,9.164,0,0,1,4.114-.907,7.7,7.7,0,0,1,5.8,2.342,8.362,8.362,0,0,1,2.257,6.055v13.5h-4.219V618.93a5.687,5.687,0,0,0-1.329-3.987,4.641,4.641,0,0,0-3.607-1.456,5.629,5.629,0,0,0-2.827.718,6.394,6.394,0,0,0-2.195,2.152,8.168,8.168,0,0,1,.127.907q.042.486.042.95v13.5h-4.177V618.93a5.686,5.686,0,0,0-1.329-3.987,4.64,4.64,0,0,0-3.607-1.456,5.725,5.725,0,0,0-2.743.654A5.943,5.943,0,0,0,539.1,616.1v15.612Z" transform="translate(-7.827 -2.691)"/><path class="c" d="M585.5,626.638a7.421,7.421,0,0,0,2.448,1.392,8.921,8.921,0,0,0,3,.506,7.259,7.259,0,0,0,7.257-6.16H581.238v-1.224a12.158,12.158,0,0,1,.8-4.43,11.254,11.254,0,0,1,2.173-3.565,10.005,10.005,0,0,1,7.405-3.228,10.436,10.436,0,0,1,4.219.865,10.631,10.631,0,0,1,3.418,2.342,11.247,11.247,0,0,1,3.123,7.848,11.2,11.2,0,0,1-.865,4.409,10.6,10.6,0,0,1-2.383,3.523,11.485,11.485,0,0,1-8.017,3.206A12.941,12.941,0,0,1,582.8,629.3Zm2.131-11.519a7.35,7.35,0,0,0-2.215,4.093h12.742a7.084,7.084,0,0,0-2.257-4.135,6.1,6.1,0,0,0-4.2-1.6A5.764,5.764,0,0,0,587.63,615.118Z" transform="translate(-19.21 -2.719)"/><path class="b" d="M613.114,631.7V610.225h4.22v2.742a6.623,6.623,0,0,1,2.489-2.384,7.063,7.063,0,0,1,3.418-.822,7.234,7.234,0,0,1,1.182.085,5.544,5.544,0,0,1,.97.253v3.8a8.77,8.77,0,0,0-1.223-.337,6.437,6.437,0,0,0-1.266-.127,5.75,5.75,0,0,0-3.312.991,6.371,6.371,0,0,0-2.257,2.933V631.7Z" transform="translate(-27.036 -2.677)"/><path class="b" d="M640.19,631.9a10.436,10.436,0,0,1-4.219-.865,10.722,10.722,0,0,1-5.738-5.844,11.39,11.39,0,0,1,0-8.607,10.669,10.669,0,0,1,5.759-5.844,10.7,10.7,0,0,1,4.283-.865,10.434,10.434,0,0,1,3.354.548,10.573,10.573,0,0,1,3.016,1.6v-1.772h4.177v21.772a8.135,8.135,0,0,1-2.553,6.434q-2.553,2.258-7.278,2.257a19.34,19.34,0,0,1-4.577-.549,16.119,16.119,0,0,1-4.072-1.561l1.646-3.291a18.526,18.526,0,0,0,3.5,1.393,12.711,12.711,0,0,0,3.376.464,6.234,6.234,0,0,0,4.261-1.308,4.859,4.859,0,0,0,1.477-3.84v-2.405a10.129,10.129,0,0,1-3,1.688A10.02,10.02,0,0,1,640.19,631.9Zm-6.667-11.012a7.2,7.2,0,0,0,2.067,5.211,6.83,6.83,0,0,0,5.105,2.131,8.34,8.34,0,0,0,3.333-.654,7.238,7.238,0,0,0,2.573-1.836v-9.7a6.8,6.8,0,0,0-2.552-1.836,8.493,8.493,0,0,0-3.354-.654,6.833,6.833,0,0,0-5.105,2.131A7.2,7.2,0,0,0,633.523,620.885Z" transform="translate(-31.032 -2.705)"/><path class="b" d="M664.9,604.088a2.443,2.443,0,0,1-1.815-.78,2.6,2.6,0,0,1,0-3.671,2.445,2.445,0,0,1,1.815-.78,2.616,2.616,0,0,1,0,5.231Zm2.109,3.46v21.477h-4.219V607.548Z" transform="translate(-39.12 0)"/><path class="b" d="M680.115,632.1a8.642,8.642,0,0,1-5.7-1.815,5.842,5.842,0,0,1-2.194-4.725,5.675,5.675,0,0,1,2.321-4.789,10.358,10.358,0,0,1,6.371-1.751,14.439,14.439,0,0,1,3.037.317,16.911,16.911,0,0,1,2.827.865v-2.278a4.221,4.221,0,0,0-1.35-3.418,5.867,5.867,0,0,0-3.882-1.139,11.54,11.54,0,0,0-3.081.444,23.089,23.089,0,0,0-3.586,1.371l-1.562-3.164a24.149,24.149,0,0,1,4.557-1.667,17.853,17.853,0,0,1,4.262-.527,9.549,9.549,0,0,1,6.476,2,7.125,7.125,0,0,1,2.3,5.675v14.219h-4.135v-1.857a10.025,10.025,0,0,1-3.08,1.688A11.3,11.3,0,0,1,680.115,632.1Zm-3.839-6.624A3,3,0,0,0,677.605,628a5.761,5.761,0,0,0,3.481.97,9.311,9.311,0,0,0,3.122-.506,7.682,7.682,0,0,0,2.573-1.519v-3.713a10.074,10.074,0,0,0-2.573-.992,12.971,12.971,0,0,0-2.954-.316,6.1,6.1,0,0,0-3.628.97A3.021,3.021,0,0,0,676.276,625.471Z" transform="translate(-41.55 -2.691)"/></g></svg>